<?xml version="1.0" standalone="no"?>
<!DOCTYPE svg PUBLIC "-//W3C//DTD SVG 20010904//EN"
 "http://www.w3.org/TR/2001/REC-SVG-20010904/DTD/svg10.dtd">
<svg version="1.0" xmlns="http://www.w3.org/2000/svg"
 width="400.000000pt" height="400.000000pt" viewBox="0 0 400.000000 400.000000"
 preserveAspectRatio="xMidYMid meet">
<metadata>
Created by potrace 1.14, written by Peter Selinger 2001-2017
</metadata>
<g transform="translate(0.000000,400.000000) scale(0.100000,-0.100000)"
fill="#000000" stroke="none">
<path d="M1599 3902 c-109 -110 -168 -181 -226 -267 -100 -149 -189 -372 -215
-535 l-13 -85 -6 70 c-6 64 -6 61 -5 -27 l2 -96 -24 41 c-39 67 -131 322 -133
370 -1 15 -3 17 -6 6 -2 -9 5 -53 16 -97 12 -44 19 -86 18 -94 -2 -7 -2 -9 1
-4 4 8 62 -137 62 -156 0 -16 -20 -7 -21 10 0 9 -9 42 -19 72 -26 76 -26 26 0
-72 13 -50 17 -84 12 -99 -9 -24 -18 8 -48 176 l-14 80 5 -110 c3 -60 8 -123
12 -140 4 -21 2 -27 -5 -20 -6 6 -12 21 -15 35 -2 14 -5 -50 -6 -141 -1 -156
1 -172 29 -274 31 -110 33 -140 6 -88 -47 93 -79 314 -80 563 -1 191 20 432
35 395 5 -14 8 -7 8 25 2 77 -19 31 -41 -91 -33 -188 -26 -543 16 -771 7 -40
16 -82 21 -93 6 -16 3 -15 -18 6 -61 63 -171 138 -184 126 -2 -3 5 -8 16 -12
12 -3 18 -11 15 -17 -4 -7 -2 -8 4 -4 15 9 82 -41 78 -57 -1 -7 -1 -9 1 -5 2
4 11 4 19 1 12 -4 13 -8 4 -13 -10 -6 -9 -13 4 -31 23 -33 20 -49 -4 -19 -16
20 -13 9 10 -49 16 -41 30 -78 30 -83 0 -5 14 -38 31 -74 35 -75 34 -92 -3
-37 -45 68 -65 109 -98 199 -28 76 -83 196 -65 139 89 -266 175 -413 265 -449
48 -19 51 -38 7 -64 -31 -20 -95 -86 -97 -100 -3 -35 -13 -44 -44 -36 -37 9
-202 13 -214 5 -5 -3 -14 -15 -21 -26 -10 -17 -11 -15 -5 15 7 43 31 63 64 55
41 -11 217 -16 200 -6 -8 5 -63 11 -122 14 -82 4 -111 2 -127 -9 -44 -31 -70
-299 -37 -379 17 -41 29 -46 20 -9 l-7 25 29 -26 c17 -16 33 -23 43 -19 9 4
39 6 67 5 40 -2 53 2 58 14 5 15 9 14 33 -3 16 -11 31 -19 36 -18 4 0 14 -11
22 -26 12 -25 12 -28 -1 -28 -8 0 -29 7 -47 16 -25 13 -48 15 -115 10 -62 -5
-89 -3 -101 6 -14 12 -15 11 -2 -5 13 -16 24 -18 96 -12 63 6 89 4 111 -8 32
-16 209 -23 218 -8 3 5 -26 11 -64 13 -38 2 -75 9 -82 16 -19 19 -14 234 7
313 19 75 13 88 -10 22 -31 -88 -35 -92 -32 -33 3 46 11 66 47 118 43 63 83
102 103 102 6 0 0 -11 -13 -25 -19 -21 -21 -25 -7 -25 9 0 17 -4 17 -10 0 -5
-5 -10 -11 -10 -5 0 -26 -11 -45 -23 l-34 -24 42 1 c24 0 69 -8 100 -17 45
-14 61 -24 73 -47 14 -28 14 -33 -9 -78 -39 -78 -57 -187 -54 -336 2 -122 0
-135 -24 -191 -14 -32 -24 -69 -22 -82 3 -17 -10 -36 -55 -80 -101 -99 -119
-148 -82 -221 24 -47 56 -81 90 -96 47 -19 101 -89 101 -128 0 -52 18 -70 65
-66 l40 3 46 -116 c68 -168 67 -152 12 -172 -156 -54 -280 -70 -345 -43 -48
21 -164 -1 -236 -43 -29 -17 -92 -40 -140 -52 -48 -12 -108 -34 -133 -50 -58
-37 -95 -44 -159 -30 -43 9 -63 8 -130 -9 -43 -11 -86 -20 -95 -20 -10 0 -31
-11 -47 -25 l-30 -26 43 6 c24 3 52 8 63 11 12 4 16 2 12 -5 -5 -7 1 -11 14
-11 12 0 18 4 15 10 -4 6 6 7 25 4 23 -5 34 -2 45 12 7 11 17 16 21 11 4 -4 2
-7 -4 -7 -7 0 -12 -4 -12 -9 0 -10 50 -2 67 11 6 5 12 5 15 -1 1 -5 36 1 78
14 111 34 287 74 376 85 43 6 169 10 279 8 359 -4 372 -4 393 15 11 10 22 13
28 8 18 -19 94 -38 130 -34 67 7 174 87 174 130 0 14 12 15 88 10 48 -4 112
-13 142 -22 30 -8 81 -20 113 -26 31 -6 57 -15 57 -20 0 -5 -12 -7 -27 -4 -24
5 -23 3 7 -10 19 -9 51 -20 70 -25 l35 -8 -30 -1 c-17 -1 -39 -7 -50 -15 -24
-16 -105 -26 -105 -12 0 5 -9 1 -19 -8 -12 -11 -27 -15 -38 -12 -11 3 -28 -1
-39 -9 -10 -8 -30 -15 -44 -15 -20 0 -22 -3 -10 -10 9 -5 52 -7 95 -4 44 3 98
5 120 6 22 1 45 8 50 15 7 9 34 14 79 15 58 1 69 4 73 19 6 23 16 24 33 4 11
-14 14 -13 24 1 10 14 15 13 39 -6 28 -22 51 -20 29 2 -18 18 -15 37 6 37 51
2 103 14 92 21 -7 4 36 8 96 8 60 -1 120 4 134 10 24 10 24 11 -9 11 -19 1
-32 4 -29 7 14 14 419 -52 533 -86 17 -5 41 -11 55 -14 14 -2 88 -20 165 -40
148 -37 197 -48 230 -50 11 -1 30 -7 42 -14 36 -20 37 -14 5 19 -21 22 -62 42
-143 70 -171 60 -238 80 -303 90 -33 5 -75 18 -94 30 -24 14 -56 21 -103 23
-53 2 -76 7 -100 25 -50 37 -86 44 -118 20 -37 -27 -80 -27 -132 0 -39 21 -57
23 -201 23 l-159 0 -48 33 -48 33 -204 2 c-112 0 -226 -4 -254 -9 -80 -16 -79
-16 -70 31 3 24 10 66 14 93 10 65 36 122 61 135 11 6 28 27 38 47 33 70 64
67 103 -10 30 -57 23 -69 -26 -51 -45 17 -95 26 -95 18 0 -3 7 -12 15 -20 8
-9 15 -11 15 -5 0 7 102 -13 118 -24 1 -1 5 -20 7 -41 7 -51 24 -59 57 -27 21
20 26 32 21 53 -4 23 -1 28 20 34 68 17 148 141 164 251 l5 43 29 -17 c16 -9
29 -19 29 -23 0 -5 10 -8 23 -8 12 0 29 -6 38 -13 11 -8 50 -11 120 -10 125 3
134 5 182 26 20 9 52 24 71 32 43 19 74 63 55 77 -11 8 -10 9 3 5 19 -7 33 8
42 43 3 14 3 19 0 13 -3 -7 -10 -13 -15 -13 -5 0 -3 11 3 25 7 15 17 24 25 21
9 -4 13 6 13 36 0 31 -3 38 -12 30 -10 -8 -13 0 -14 36 -2 46 -2 46 7 12 7
-29 7 -26 4 19 -4 52 -18 81 -38 81 -5 0 -2 -9 7 -19 10 -11 13 -22 8 -25 -5
-3 -22 19 -37 49 -14 30 -33 55 -41 55 -8 0 -14 5 -14 10 0 6 -5 10 -11 10 -6
0 -17 7 -25 15 -14 13 -13 15 6 15 11 0 32 -7 46 -16 13 -9 27 -14 30 -12 2 3
-7 13 -22 23 -40 26 -194 28 -194 3 0 -6 14 -8 33 -5 38 6 71 -7 39 -15 -11
-3 -37 -4 -58 -2 -34 3 -36 2 -16 -8 22 -11 31 -38 12 -38 -5 0 -10 5 -10 10
0 6 -4 10 -9 10 -12 0 -1 -43 13 -52 16 -11 28 -10 21 1 -3 6 6 6 25 1 16 -5
30 -7 30 -4 0 3 10 0 21 -7 17 -9 19 -13 8 -20 -10 -6 -10 -9 -2 -9 15 0 38
-43 46 -86 5 -25 -1 -42 -25 -79 -38 -58 -87 -89 -161 -105 -78 -16 -197 3
-197 31 0 7 -7 20 -15 29 -14 15 -14 21 0 53 8 20 15 58 15 84 -1 135 1 172
11 221 8 42 14 52 27 48 53 -15 92 -17 170 -9 l87 8 -127 5 c-69 3 -129 8
-133 11 -3 4 -1 26 5 50 6 23 11 92 11 154 -1 109 -1 112 26 137 24 22 40 27
119 32 l91 7 13 -63 c8 -35 16 -124 20 -198 6 -135 6 -135 22 -100 14 29 18
32 23 17 6 -14 10 -15 21 -6 8 7 18 9 22 5 4 -4 -8 -21 -27 -38 -23 -21 -41
-28 -57 -25 -30 5 -31 -1 -1 -12 14 -6 32 -4 50 6 46 23 223 13 269 -15 51
-32 150 -31 182 1 13 13 25 29 27 36 3 7 27 19 54 26 46 11 51 15 59 49 13 48
-14 191 -49 262 -19 38 -40 62 -80 89 -64 45 -89 46 -175 11 l-62 -25 -33 22
c-30 19 -31 22 -18 46 7 14 11 37 8 52 -5 23 7 34 137 130 191 140 198 147
198 201 0 56 -34 94 -75 84 -26 -7 -320 -200 -362 -239 -13 -11 -23 -16 -23
-10 0 6 7 16 16 24 27 22 132 245 120 256 -2 2 -27 -17 -56 -42 -29 -25 -54
-44 -57 -41 -3 3 2 19 10 36 9 16 11 28 5 24 -6 -4 -8 29 -5 97 7 125 -7 340
-28 441 -21 102 -69 231 -73 198 -5 -34 -92 -283 -103 -294 -5 -6 -9 50 -9
136 0 323 -55 511 -223 766 l-34 52 -6 -117 c-7 -141 -60 -409 -78 -397 -5 3
-9 12 -9 20 0 8 -24 66 -54 129 l-53 115 -72 -135 c-40 -74 -76 -135 -80 -135
-4 0 -4 24 0 53 13 88 11 399 -2 395 -8 -3 -11 -57 -11 -178 1 -96 -2 -193 -7
-215 -7 -32 -9 -35 -10 -12 -1 16 -6 26 -13 25 -10 -2 -13 18 -11 77 0 51 -2
73 -7 60 -7 -17 -9 -15 -9 12 -1 43 -22 35 -55 -20 -14 -23 -47 -64 -72 -92
l-46 -50 32 60 c18 33 58 96 90 140 70 99 104 155 97 161 -8 8 -175 -231 -218
-314 l-41 -77 6 45 c3 25 8 67 12 94 3 27 17 92 29 145 13 53 22 97 20 99 -6
7 -44 -124 -60 -209 -8 -44 -16 -107 -16 -138 l-1 -56 -9 40 c-18 75 -11 429
9 560 18 110 19 136 8 124 -2 -2 -14 -62 -26 -134 -17 -96 -23 -175 -24 -303
l-1 -174 -22 69 c-12 37 -22 61 -23 53 0 -12 -2 -12 -8 -2 -5 7 -7 33 -6 57 4
67 -13 45 -20 -27 -15 -133 -26 -135 -20 -3 3 78 9 131 16 134 7 2 7 5 0 10
-6 4 -9 17 -5 30 4 17 8 19 15 9 5 -8 6 -3 2 14 -3 15 -1 43 6 62 16 49 23 93
13 81 -5 -5 -22 -39 -38 -75 -17 -36 -32 -67 -35 -70 -17 -15 -60 -138 -61
-173 l-2 -42 -7 45 c-4 26 -3 50 2 57 5 7 8 20 6 30 -3 14 -8 10 -23 -17 -10
-19 -22 -48 -26 -65 -4 -16 -15 -57 -24 -90 -22 -82 -45 -209 -47 -270 l-1
-50 -4 43 c-5 57 -21 54 -26 -5 -2 -35 -4 -27 -5 27 -1 41 3 104 9 140 5 36
12 84 14 108 3 24 11 50 20 58 8 9 15 20 15 25 0 20 44 108 52 103 4 -3 5 3 1
12 -5 13 -3 16 9 11 17 -6 48 21 48 41 0 7 4 12 10 12 5 0 7 6 4 14 -4 9 6 20
25 31 17 8 31 22 31 30 0 8 5 15 10 15 6 0 10 5 10 11 0 5 -4 7 -10 4 -5 -3
-10 -1 -10 5 0 7 6 10 13 7 8 -3 14 0 14 6 0 7 4 21 9 32 7 19 -42 -25 -76
-69 -14 -18 -13 -18 10 -12 21 6 22 5 7 -4 -9 -6 -21 -9 -26 -5 -25 15 -163
-240 -246 -455 -27 -68 -51 -118 -53 -110 -15 45 -44 28 -62 -35 -11 -40 -30
-70 -30 -48 0 32 61 189 115 298 77 155 183 301 325 449 57 58 96 106 89 106
-8 -1 -57 -44 -110 -98z m892 -277 c65 -117 97 -203 127 -345 22 -99 48 -349
39 -372 -7 -21 -13 5 -27 117 -15 122 -47 286 -59 298 -5 5 -7 -2 -5 -15 11
-82 12 -112 3 -95 -6 9 -14 15 -20 12 -5 -4 -9 -2 -9 3 0 6 -5 56 -11 113 -7
57 -12 113 -13 124 -1 11 -4 25 -7 30 -4 6 -9 27 -13 47 -9 47 -26 59 -26 18
0 -17 -3 -29 -8 -26 -4 2 -7 -19 -6 -47 0 -29 -2 -95 -6 -147 l-7 -95 -2 115
-3 115 -21 -80 c-11 -44 -23 -82 -27 -85 -4 -3 -10 -12 -13 -20 -14 -37 -5 37
18 152 13 68 25 162 27 210 2 47 4 85 6 83 2 -2 30 -51 63 -110z m-252 -168
c62 -138 91 -215 91 -247 l-1 -35 -24 50 c-14 28 -32 76 -41 109 -8 32 -23 73
-33 91 l-18 34 -15 -32 c-21 -42 -88 -135 -88 -122 -1 13 93 204 100 205 3 0
16 -24 29 -53z m607 -567 c15 -81 30 -478 17 -435 -5 16 -9 13 -19 -20 -12
-39 -12 -39 -13 -9 -1 17 -4 34 -8 38 -4 3 -6 29 -4 56 1 27 -2 109 -8 182 -6
73 -12 168 -15 211 -2 43 -9 84 -15 91 -11 13 -7 56 7 81 8 13 39 -91 58 -195z
m-796 101 c0 -5 15 -5 35 -1 20 4 35 4 35 -1 0 -5 19 -9 43 -9 58 0 93 -10 75
-21 -8 -6 0 -9 25 -9 20 0 37 -4 37 -10 0 -5 13 -10 30 -10 16 0 37 -8 47 -18
10 -10 36 -26 58 -35 80 -35 120 -187 109 -417 -5 -101 -2 -148 15 -246 29
-169 28 -246 -5 -313 -40 -79 -98 -129 -230 -197 -208 -108 -347 -142 -539
-131 -165 9 -278 48 -393 134 -69 52 -115 108 -152 182 -37 73 -39 145 -10
241 22 72 25 162 10 255 -20 118 -15 226 15 315 18 53 36 90 53 104 14 11 42
36 63 54 20 17 44 32 53 32 9 0 24 4 34 9 9 5 28 13 42 19 66 27 79 30 152 33
26 1 45 7 41 12 -3 5 7 6 26 2 17 -4 31 -3 31 3 0 10 78 8 88 -2 3 -3 11 -1
19 5 7 6 13 8 13 4 0 -4 7 -2 15 5 11 9 15 9 15 1 0 -8 5 -9 19 -1 11 5 26 8
33 5 7 -3 27 -1 43 4 40 12 55 13 55 2z m724 -35 c-3 -15 -8 -25 -11 -23 -2 3
-1 17 3 31 3 15 8 25 11 23 2 -3 1 -17 -3 -31z m-1844 -477 c7 -11 9 -23 6
-27 -3 -3 -6 0 -6 6 0 6 -7 18 -16 26 -8 9 -11 16 -5 16 6 0 15 -9 21 -21z
m289 -156 c-1 -43 -4 -66 -6 -50 -2 15 -11 27 -18 27 -8 0 -18 8 -24 17 -12
22 -37 4 -44 -34 -7 -36 20 -78 40 -62 7 7 16 9 20 5 3 -3 1 -6 -5 -6 -7 0
-12 -5 -12 -11 0 -5 5 -7 10 -4 18 11 10 -10 -10 -28 -12 -10 -20 -28 -19 -44
l1 -28 9 27 c9 23 36 44 45 35 2 -2 -3 -26 -11 -53 -8 -27 -15 -59 -15 -71 0
-40 -20 -25 -47 35 -27 59 -42 184 -29 236 10 42 54 86 87 86 l29 0 -1 -77z
m1466 43 c13 -13 27 -36 31 -50 14 -56 -44 -255 -87 -301 -19 -19 -19 -19 -19
22 0 23 -7 77 -15 120 -14 71 -20 155 -8 111 2 -10 8 -18 13 -18 4 0 6 -8 3
-19 -3 -10 1 -22 7 -26 7 -5 11 -1 10 11 -5 40 -1 49 13 29 9 -12 16 -14 21
-7 4 6 -3 21 -15 33 l-22 22 21 -5 c23 -6 31 7 10 15 -7 2 -9 8 -5 13 5 5 17
-1 28 -15 14 -16 19 -19 19 -8 0 19 -27 47 -43 47 -7 -1 -23 -7 -37 -15 -36
-20 -42 -18 -38 12 2 17 12 32 28 40 37 19 58 16 85 -11z m269 -13 c-15 -59
-118 -223 -131 -209 -7 7 124 236 135 236 1 0 -1 -12 -4 -27z m340 -26 c15
-41 -9 -81 -72 -120 -65 -41 -94 -62 -130 -95 -49 -47 -125 -103 -131 -97 -7
7 87 95 101 95 6 0 4 8 -3 18 -11 14 -11 15 1 5 18 -16 34 -17 24 -1 -4 6 -3
8 3 5 6 -4 18 0 28 7 14 10 15 15 5 21 -9 6 -11 4 -5 -5 5 -9 4 -11 -4 -6 -6
4 -9 12 -5 17 3 5 10 7 15 4 5 -4 9 -2 9 3 0 6 23 18 50 28 28 10 60 27 72 38
18 17 19 20 4 28 -18 10 -22 54 -4 60 21 7 -3 30 -26 24 -20 -5 -20 -5 -2 9
17 13 23 13 40 1 12 -7 25 -25 30 -39z m-432 -52 c-6 -34 -12 -32 -12 6 0 16
4 28 9 25 4 -3 6 -17 3 -31z m365 9 c2 -6 -47 -45 -109 -86 -116 -77 -158
-102 -158 -94 0 6 170 121 208 140 26 13 32 21 27 37 -5 16 -3 20 11 17 9 -1
19 -8 21 -14z m-2016 -81 c-9 -16 -10 -14 -11 12 0 21 3 26 11 18 8 -8 8 -16
0 -30z m1670 -103 c10 -6 19 -15 19 -20 0 -16 -23 -11 -50 10 -21 16 -22 20
-7 20 10 0 27 -5 38 -10z m-27 -84 c-5 -14 -63 -40 -71 -32 -2 2 13 13 34 24
21 10 39 20 40 21 1 0 0 -5 -3 -13z m90 -2 c11 -29 6 -80 -10 -100 -15 -18
-15 -18 -5 3 6 12 9 28 7 35 -2 7 -7 28 -10 46 -6 33 7 45 18 16z m-353 -147
c-6 -15 -17 -27 -25 -27 -12 0 -11 7 6 37 24 39 35 33 19 -10z m647 0 c11 -8
11 -12 0 -18 -9 -6 -4 -9 13 -9 30 0 54 -23 46 -44 -3 -8 1 -20 9 -27 25 -21
79 -245 64 -269 -10 -15 -21 -15 -31 2 -7 10 -9 10 -9 0 0 -17 -61 -42 -102
-42 -36 0 -28 -16 12 -22 l25 -3 -28 -19 c-45 -30 -117 -33 -166 -5 -23 12
-41 26 -41 30 0 3 7 24 16 45 10 23 18 82 21 149 5 98 3 116 -15 158 -16 35
-18 49 -9 52 122 46 160 50 195 22z m-456 -10 c20 -8 49 -8 104 0 88 13 107 5
140 -55 22 -40 13 -52 -11 -15 -33 51 -37 52 -119 46 -67 -5 -76 -8 -71 -24
10 -30 -11 -30 -40 1 -16 17 -38 30 -49 30 -12 0 -27 4 -35 9 -11 7 -10 11 5
20 11 6 26 8 34 5 8 -4 27 -11 42 -17z m-1527 -57 c3 -5 1 -10 -4 -10 -6 0
-11 5 -11 10 0 6 2 10 4 10 3 0 8 -4 11 -10z m44 -87 c-3 -13 13 -43 23 -43 5
0 6 5 2 11 -4 7 -1 10 7 7 8 -3 13 -14 11 -26 -2 -11 2 -24 9 -28 8 -4 9 -3 5
4 -4 7 -3 12 1 12 5 0 13 -10 18 -21 13 -28 92 -73 98 -56 3 7 24 -9 51 -37
25 -27 45 -51 43 -52 -2 -2 -19 -6 -38 -8 -134 -17 -305 -152 -366 -289 -12
-27 -19 -33 -25 -24 -9 16 -4 49 12 74 8 15 9 12 4 -12 -5 -23 -4 -27 6 -19 6
7 13 23 13 37 1 14 5 23 8 21 4 -2 12 10 19 26 7 17 18 30 24 30 6 0 19 9 29
20 9 11 12 20 7 20 -6 0 -10 9 -10 20 0 11 -3 20 -7 20 -5 0 -8 60 -8 134 0
74 3 138 8 142 4 4 7 16 7 26 0 10 6 21 14 24 9 3 12 13 9 22 -3 11 1 9 11 -5
9 -12 16 -26 15 -30z m1141 12 c0 -14 -24 -54 -31 -50 -4 3 -5 -3 -3 -12 3
-10 -5 -31 -16 -48 -48 -73 -53 -81 -36 -61 23 28 31 13 10 -21 l-18 -28 30
27 30 27 -2 -37 c-1 -20 -3 -39 -4 -42 -1 -3 -2 -9 -1 -14 1 -4 -2 -13 -7 -20
-5 -6 -19 -59 -32 -118 -22 -99 -40 -139 -40 -87 0 11 -13 51 -29 88 l-29 68
39 46 c31 36 37 50 31 67 -7 20 -11 18 -51 -29 -37 -43 -46 -49 -63 -40 -11 6
-26 8 -34 5 -18 -7 -17 -5 1 30 8 16 15 37 15 46 0 9 5 20 11 24 9 5 10 -1 5
-22 -7 -26 -5 -25 24 14 17 23 35 40 40 37 16 -10 50 14 50 35 0 10 13 27 30
37 17 9 30 23 30 30 0 7 7 13 16 13 8 0 12 5 9 10 -7 12 2 30 16 30 5 0 9 -2
9 -5z m-1110 -9 c0 -3 -4 -8 -10 -11 -5 -3 -10 -1 -10 4 0 6 5 11 10 11 6 0
10 -2 10 -4z m1116 -121 c-4 -14 -10 -25 -15 -25 -4 0 -3 16 3 35 12 38 22 29
12 -10z m-286 -14 c-31 -45 -163 -175 -227 -225 l-57 -45 -53 50 c-46 43 -86
66 -203 117 l-25 11 25 0 c23 1 22 3 -18 44 -23 23 -42 45 -42 48 0 3 21 2 48
-2 159 -28 226 -32 331 -21 58 6 133 20 166 31 79 26 80 26 55 -8z m9 -100
c-16 -37 -29 -51 -57 -64 -22 -10 -48 -33 -65 -59 -27 -42 -36 -88 -17 -88 6
0 10 10 10 23 0 39 36 84 91 112 43 21 58 24 76 16 13 -6 23 -18 23 -26 0 -9
4 -14 9 -11 5 3 21 -26 35 -65 29 -78 35 -177 12 -218 l-13 -23 -8 33 -7 34
-10 -37 c-9 -35 -13 -38 -44 -38 -38 0 -42 7 -17 25 15 11 14 12 -11 8 -20 -4
-27 -2 -22 6 4 6 15 11 24 12 10 1 7 4 -8 8 l-25 7 33 17 c33 18 37 15 32 -27
-1 -11 3 -15 9 -12 6 4 11 23 11 42 l0 34 -36 -15 c-46 -19 -67 -19 -34 0 25
14 25 14 3 15 -26 0 -29 10 -10 29 10 10 7 10 -16 2 -53 -20 -52 -11 2 19 30
17 56 30 58 30 1 0 3 -16 3 -37 0 -20 2 -34 5 -31 10 9 16 86 8 91 -5 3 -33
-10 -63 -29 -30 -19 -60 -34 -67 -34 -16 0 -16 -9 2 -40 11 -19 14 -21 15 -7
0 9 7 17 15 17 18 0 20 -16 4 -26 -8 -4 -7 -9 2 -15 10 -6 5 -11 -18 -20 -36
-12 -40 -21 -19 -38 12 -10 14 -9 9 7 -3 14 2 21 16 25 22 6 29 -8 9 -16 -8
-3 -6 -6 5 -6 21 -1 23 -21 2 -21 -8 0 -15 -4 -15 -10 0 -5 7 -7 15 -3 9 3 24
-2 35 -12 15 -13 30 -16 60 -12 34 4 39 3 30 -8 -6 -8 -34 -21 -62 -31 -58
-19 -120 -14 -149 12 -27 24 -42 88 -33 138 5 22 9 47 9 55 0 8 6 16 14 19 8
3 11 0 7 -7 -4 -6 -2 -11 3 -11 6 0 11 3 11 8 0 14 -17 34 -26 30 -19 -7 -59
-51 -56 -61 2 -6 -6 -3 -19 8 -30 28 -74 98 -62 102 29 10 231 170 271 215 27
29 32 10 11 -41z m161 14 c0 -3 -9 -14 -20 -25 -22 -22 -28 -8 -7 15 12 14 27
20 27 10z m690 -30 c0 -25 -29 -39 -55 -27 -16 7 -48 9 -85 5 -54 -5 -60 -4
-54 11 6 14 19 17 80 15 41 -1 76 0 79 3 10 10 35 4 35 -7z m-1358 -25 c58
-17 151 -84 199 -146 24 -31 56 -71 72 -87 40 -44 40 -84 0 -194 -14 -40 -30
-70 -35 -67 -10 7 -1 64 13 79 12 12 12 45 0 45 -5 0 -12 -8 -14 -17 -3 -13
-5 -11 -6 6 -1 16 -5 21 -16 17 -11 -4 -15 1 -15 19 0 13 -11 32 -25 43 -15
12 -25 30 -25 46 0 14 -4 26 -9 26 -5 0 -11 9 -14 20 -7 28 -32 25 -46 -6 -10
-22 -9 -25 6 -22 27 5 57 -36 44 -61 -8 -15 -5 -25 14 -47 13 -15 21 -32 18
-38 -4 -6 -11 -2 -17 9 -6 10 -22 29 -35 41 -22 22 -30 23 -150 21 -113 -3
-132 -6 -180 -29 -30 -15 -59 -24 -64 -21 -6 3 -7 2 -4 -4 3 -5 -3 -17 -14
-26 -18 -16 -19 -15 -19 23 0 51 -28 110 -52 110 -10 0 -18 -5 -18 -12 0 -6
-2 -9 -5 -6 -12 11 8 39 24 34 9 -3 6 2 -6 10 -22 16 -33 42 -13 29 15 -9 12
2 -5 19 -21 20 -12 36 60 106 35 35 73 61 103 72 54 19 178 23 234 8z m-419
-97 c-6 -15 -23 -18 -23 -3 0 6 6 10 13 11 9 0 9 2 -1 6 -6 2 -9 9 -6 15 9 14
24 -11 17 -29z m-56 -50 c-3 -10 -5 -4 -5 12 0 17 2 24 5 18 2 -7 2 -21 0 -30z
m1150 -138 c-3 -19 -2 -35 4 -35 5 0 9 6 9 13 0 8 4 7 10 -3 6 -10 10 -11 10
-2 0 6 7 12 15 12 23 0 18 -45 -9 -77 -49 -58 -204 -124 -293 -124 -72 -1
-110 21 -115 66 -6 49 4 60 30 30 33 -38 89 -58 148 -52 96 10 154 61 177 156
13 58 22 68 14 16z m-347 15 c0 -5 -4 -10 -10 -10 -5 0 -10 5 -10 10 0 6 5 10
10 10 6 0 10 -4 10 -10z m-866 -73 c-10 -12 -38 -42 -61 -67 -46 -49 -66 -97
-58 -139 4 -19 0 -15 -15 14 -11 22 -20 45 -20 50 0 17 151 175 162 169 5 -3
2 -15 -8 -27z m719 16 c-7 -2 -19 -2 -25 0 -7 3 -2 5 12 5 14 0 19 -2 13 -5z
m-190 -37 c56 -17 99 -47 128 -89 20 -29 19 -29 -22 9 -107 101 -224 108 -339
19 -63 -49 -106 -98 -138 -160 -25 -47 -30 -23 -7 32 18 41 81 123 96 123 6 0
25 11 43 25 69 52 153 67 239 41z m-373 -116 c6 0 5 -9 -2 -20 -12 -19 -13
-19 -24 3 -7 12 -10 36 -6 52 l6 30 8 -32 c5 -18 13 -33 18 -33z m1016 5 c-30
-24 -71 -40 -60 -24 5 9 74 48 84 48 3 0 -8 -10 -24 -24z m-305 -109 c21 -22
9 -64 -32 -105 -23 -23 -44 -39 -47 -36 -3 3 -10 1 -17 -3 -6 -4 -4 0 5 8 21
21 42 80 28 80 -6 0 -3 9 6 19 12 13 17 33 16 58 -2 21 -2 54 0 73 2 32 4 29
17 -25 8 -33 18 -64 24 -69z m-641 44 c0 -5 -5 -10 -11 -10 -5 0 -7 5 -4 10 3
6 8 10 11 10 2 0 4 -4 4 -10z m965 -57 c-12 -65 -64 -161 -107 -198 -23 -19
-45 -35 -49 -35 -3 0 -6 18 -5 41 1 43 -6 51 -94 119 l-32 25 26 1 c14 1 26
-2 26 -7 0 -5 5 -9 11 -9 5 0 8 4 4 9 -7 13 28 31 65 34 17 1 30 8 30 15 0 16
18 15 36 -3 9 -8 11 -15 5 -15 -6 0 -11 -5 -11 -11 0 -5 5 -7 10 -4 6 3 10 2
10 -4 0 -5 -6 -11 -12 -14 -7 -2 -10 -8 -6 -12 12 -13 28 5 29 33 1 16 3 20 6
10 7 -26 31 -10 43 28 15 45 24 43 15 -3z m-974 -3 c6 0 7 -5 4 -10 -4 -6 -11
-8 -16 -5 -5 4 -9 1 -9 -4 0 -6 16 -11 36 -11 41 0 38 -15 -5 -23 -50 -10 -52
-56 -3 -58 27 -1 27 -1 -3 -8 -16 -3 -29 -11 -29 -16 1 -6 5 -38 8 -72 4 -33
11 -75 17 -93 6 -17 9 -33 6 -36 -18 -18 -67 165 -67 251 0 59 16 99 36 91 9
-3 20 -6 25 -6z m774 -147 c26 -40 14 -33 -45 26 -54 53 -55 54 -13 26 23 -15
49 -38 58 -52z m-195 -3 c0 -5 -4 -10 -8 -10 -5 0 -14 -10 -20 -22 l-11 -23 2
25 c2 24 13 40 30 40 4 0 7 -4 7 -10z m205 -105 c6 -27 5 -28 -6 -10 -16 25
-24 64 -10 50 5 -6 12 -23 16 -40z m-685 -305 c6 0 9 -3 8 -7 -5 -20 36 -74
74 -98 39 -24 40 -26 13 -20 -52 11 -109 80 -129 155 -7 24 -6 24 9 -2 9 -16
20 -28 25 -28z m1275 -39 c37 -8 35 -9 -25 -9 -36 0 -76 4 -90 8 -35 11 61 12
115 1z m-375 -91 c0 -5 -9 -10 -19 -10 -11 0 -23 5 -26 10 -4 6 5 10 19 10 14
0 26 -4 26 -10z"/>
<path d="M2090 2831 c-63 -20 -106 -54 -150 -116 -12 -16 -10 -16 12 3 31 28
106 52 164 52 55 0 164 -34 199 -62 16 -12 34 -23 39 -24 6 -1 17 -3 25 -5 7
-2 16 1 18 8 5 14 -94 110 -135 132 -31 16 -137 24 -172 12z"/>
<path d="M1545 2825 c-5 -2 -23 -6 -38 -10 -69 -15 -199 -185 -142 -185 8 0
15 4 15 10 0 5 7 7 15 4 8 -4 15 -2 15 4 0 22 52 71 97 92 51 24 122 29 164
12 15 -6 43 -25 63 -42 20 -18 36 -28 36 -23 0 10 -36 61 -62 87 -37 36 -124
64 -163 51z"/>
<path d="M1502 2507 c-56 -58 -79 -166 -47 -227 31 -60 123 -78 200 -40 24 12
30 18 15 14 -62 -14 -122 -16 -150 -4 -77 32 -79 158 -6 255 34 44 29 45 -12
2z"/>
<path d="M1981 2531 c-11 -7 -10 -11 5 -20 13 -9 15 -14 7 -17 -21 -9 -15 -24
10 -24 29 0 47 18 39 39 -10 29 -35 38 -61 22z"/>
<path d="M1700 2520 c0 -5 7 -10 15 -10 19 0 19 -19 0 -26 -17 -7 -10 -24 10
-24 22 0 39 38 24 56 -13 16 -49 19 -49 4z"/>
<path d="M2315 2506 c10 -14 19 -26 22 -26 7 0 -17 39 -28 46 -6 3 -3 -5 6
-20z"/>
<path d="M2351 2434 c0 -11 3 -14 6 -6 3 7 2 16 -1 19 -3 4 -6 -2 -5 -13z"/>
<path d="M2351 2376 c-2 -31 -75 -92 -138 -116 -57 -21 -117 -23 -168 -5 -20
7 -20 6 -1 -9 47 -38 159 -29 234 18 45 28 86 87 79 113 -4 16 -5 16 -6 -1z"/>
<path d="M1819 2213 c-13 -15 -12 -15 9 -2 19 12 25 12 45 0 20 -13 21 -13 8
2 -7 10 -21 17 -31 17 -10 0 -24 -7 -31 -17z"/>
<path d="M2295 2221 c3 -2 -1 -11 -8 -19 -10 -13 -8 -15 13 -9 14 4 50 7 80 7
33 0 50 4 42 9 -7 4 -24 6 -38 3 -13 -2 -24 0 -24 5 0 5 -16 9 -35 9 -19 0
-32 -2 -30 -5z"/>
<path d="M2245 2209 c-11 -17 0 -20 21 -4 17 13 17 14 2 15 -9 0 -20 -5 -23
-11z"/>
<path d="M1426 2202 c-11 -2 -26 -10 -34 -18 -11 -12 -11 -14 2 -14 8 0 17 4
20 9 3 5 41 7 83 6 43 -2 69 0 58 5 -28 10 -106 18 -129 12z"/>
<path d="M1680 2139 c-117 -19 -233 -52 -257 -73 -51 -44 -36 -158 35 -255 69
-93 213 -144 407 -144 196 -1 362 55 447 151 48 54 98 156 98 200 0 70 -25 87
-160 107 -132 20 -485 29 -570 14z"/>
<path d="M2610 2145 c0 -3 9 -14 20 -25 15 -15 20 -16 20 -5 0 8 -9 19 -20 25
-11 6 -20 8 -20 5z"/>
<path d="M3215 1800 c-4 -6 5 -10 20 -10 15 0 24 4 20 10 -3 6 -12 10 -20 10
-8 0 -17 -4 -20 -10z"/>
<path d="M3255 1580 c-5 -8 -28 -11 -67 -8 -42 3 -54 2 -41 -5 37 -21 144 -4
121 18 -3 4 -9 1 -13 -5z"/>
<path d="M3151 1490 c13 -22 26 -40 31 -40 5 0 -4 18 -18 40 -15 22 -29 40
-31 40 -2 0 6 -18 18 -40z"/>
<path d="M1480 1520 c0 -5 5 -10 11 -10 5 0 7 5 4 10 -3 6 -8 10 -11 10 -2 0
-4 -4 -4 -10z"/>
<path d="M2200 1395 c-7 -9 -8 -15 -2 -15 5 0 12 7 16 15 3 8 4 15 2 15 -2 0
-9 -7 -16 -15z"/>
<path d="M2138 1349 c-22 -23 -42 -25 -34 -3 3 9 2 12 -5 9 -5 -4 -7 -15 -4
-25 4 -12 -2 -26 -17 -39 -17 -16 -19 -24 -10 -33 9 -9 16 -7 32 7 11 10 17
22 14 27 -6 10 14 38 27 38 5 0 9 -8 9 -17 0 -27 21 0 24 31 4 30 -11 33 -36
5z m-48 -73 c0 -3 -4 -8 -10 -11 -5 -3 -10 -1 -10 4 0 6 5 11 10 11 6 0 10 -2
10 -4z"/>
<path d="M1346 1198 c5 -8 2 -9 -9 -5 -24 9 -22 -20 2 -33 13 -7 22 -7 26 0 3
5 2 10 -3 10 -6 0 -8 9 -5 20 3 12 0 20 -6 20 -7 0 -9 -5 -5 -12z"/>
<path d="M1380 1105 c0 -8 4 -15 10 -15 5 0 7 7 4 15 -4 8 -8 15 -10 15 -2 0
-4 -7 -4 -15z"/>
<path d="M2376 1093 c-6 -14 -5 -15 5 -6 7 7 10 15 7 18 -3 3 -9 -2 -12 -12z"/>
<path d="M1585 3759 c-4 -6 -5 -12 -2 -15 2 -3 7 2 10 11 7 17 1 20 -8 4z"/>
<path d="M1257 3718 c-26 -69 -88 -309 -84 -321 3 -7 8 2 11 18 4 17 27 100
51 185 23 85 42 156 40 158 -1 1 -9 -17 -18 -40z"/>
<path d="M1162 3350 c0 -14 2 -19 5 -12 2 6 2 18 0 25 -3 6 -5 1 -5 -13z"/>
<path d="M1152 3300 c0 -14 2 -19 5 -12 2 6 2 18 0 25 -3 6 -5 1 -5 -13z"/>
<path d="M1071 3234 c0 -11 3 -14 6 -6 3 7 2 16 -1 19 -3 4 -6 -2 -5 -13z"/>
<path d="M1142 3225 c0 -16 2 -22 5 -12 2 9 2 23 0 30 -3 6 -5 -1 -5 -18z"/>
<path d="M2965 2529 c-4 -6 -5 -12 -2 -15 2 -3 7 2 10 11 7 17 1 20 -8 4z"/>
<path d="M410 1929 c-6 -11 -10 -25 -8 -30 2 -5 8 4 15 21 13 34 9 40 -7 9z"/>
<path d="M517 1940 c63 -13 163 -19 163 -10 0 7 -129 21 -179 19 -18 -1 -13
-4 16 -9z"/>
<path d="M438 1903 c6 -2 18 -2 25 0 6 3 1 5 -13 5 -14 0 -19 -2 -12 -5z"/>
<path d="M1060 1890 c0 -5 9 -10 20 -10 11 0 20 5 20 10 0 6 -9 10 -20 10 -11
0 -20 -4 -20 -10z"/>
<path d="M408 1854 c-4 -3 -14 -7 -24 -8 -13 -2 -26 -23 -41 -67 -23 -65 -30
-111 -15 -93 5 5 14 34 21 65 13 63 34 88 83 99 29 7 30 8 7 9 -14 1 -28 -2
-31 -5z"/>
<path d="M2576 1782 c-3 -6 3 -12 15 -15 12 -3 19 -1 16 6 -5 15 -24 20 -31 9z"/>
<path d="M484 1659 c-3 -6 -15 -9 -25 -6 -20 6 -27 -9 -7 -15 14 -5 58 14 58
25 0 11 -18 8 -26 -4z"/>
<path d="M344 1633 c9 -18 28 -40 42 -50 14 -10 46 -35 70 -57 42 -37 47 -39
97 -33 53 5 134 33 125 42 -3 3 -21 -1 -40 -9 -19 -8 -57 -18 -84 -21 -41 -6
-53 -4 -74 14 -23 19 -24 20 -5 21 13 0 2 10 -30 26 -27 13 -65 41 -84 62
l-33 37 16 -32z"/>
<path d="M529 1628 c-7 -12 -19 -33 -27 -45 -8 -13 -10 -23 -5 -23 11 0 57 79
50 87 -3 2 -11 -6 -18 -19z"/>
<path d="M2884 1304 c3 -9 6 -18 6 -20 0 -2 4 -4 9 -4 5 0 7 9 4 20 -3 11 -10
20 -15 20 -6 0 -7 -7 -4 -16z"/>
<path d="M1937 594 c-11 -11 -8 -26 3 -19 5 3 7 0 4 -8 -2 -7 0 -27 6 -43 9
-27 9 -28 -5 -10 -8 11 -15 24 -15 30 0 5 -2 7 -5 4 -12 -11 20 -59 42 -64 28
-7 79 12 87 32 4 9 2 12 -5 8 -8 -4 -8 0 0 14 13 24 6 30 -43 42 -17 4 -38 11
-47 14 -8 4 -18 3 -22 0z"/>
<path d="M1800 249 c0 -5 5 -7 10 -4 6 3 10 8 10 11 0 2 -4 4 -10 4 -5 0 -10
-5 -10 -11z"/>
<path d="M1780 200 c0 -5 9 -10 20 -10 11 0 20 5 20 10 0 6 -9 10 -20 10 -11
0 -20 -4 -20 -10z"/>
<path d="M2001 196 c10 -9 79 -14 79 -5 0 5 -19 9 -42 9 -23 0 -39 -2 -37 -4z"/>
<path d="M1760 170 c0 -5 5 -10 11 -10 5 0 7 5 4 10 -3 6 -8 10 -11 10 -2 0
-4 -4 -4 -10z"/>
<path d="M2103 163 c-13 -2 -23 -9 -23 -15 0 -6 12 -8 31 -4 17 3 35 6 40 6 5
0 9 5 9 10 0 10 -16 11 -57 3z"/>
<path d="M1455 140 c3 -5 14 -10 23 -10 15 0 15 2 2 10 -20 13 -33 13 -25 0z"/>
</g>
</svg>
